<svg width="296" height="512" viewBox="0 0 296 512" fill="none" xmlns="http://www.w3.org/2000/svg">
<path d="M258 0H38C17.322 0 0.5 16.822 0.5 37.5V474.5C0.5 495.178 17.322 512 38 512H258C278.678 512 295.5 495.178 295.5 474.5V37.5C295.5 16.822 278.678 0 258 0ZM280.5 407H68C63.858 407 60.5 410.358 60.5 414.5C60.5 418.642 63.858 422 68 422H280.5V474.5C280.5 486.907 270.407 497 258 497H38C25.593 497 15.5 486.907 15.5 474.5V422H38C42.142 422 45.5 418.642 45.5 414.5C45.5 410.358 42.142 407 38 407H15.5V75H280.5V407ZM280.5 60H15.5V37.5C15.5 25.093 25.593 15 38 15H258C270.407 15 280.5 25.093 280.5 37.5V60Z" fill="white"/>
</svg>
