<svg xmlns="http://www.w3.org/2000/svg" viewBox="0 0 400 12" width="400" height="12" preserveAspectRatio="xMidYMid meet" style="width: 100%; height: 100%; transform: translate3d(0px, 0px, 0px);"><defs><clipPath id="__lottie_element_19"><rect width="400" height="12" x="0" y="0"></rect></clipPath></defs><g clip-path="url(#__lottie_element_19)"><g transform="matrix(1,0,0,1,-6.54779052734375,0)" opacity="1" style="display: block;"><g opacity="1" transform="matrix(1,0,0,1,400,6)"><path stroke-linecap="butt" stroke-linejoin="miter" fill-opacity="0" stroke-miterlimit="4" stroke="rgb(51,51,51)" stroke-opacity="1" stroke-width="3" d=" M-400,-4 C-397.625,-4 -395.2510070800781,-3.430999994277954 -393.1400146484375,-2.2920000553131104 C-393.1400146484375,-2.2920000553131104 -384.63800048828125,2.2920000553131104 -384.63800048828125,2.2920000553131104 C-380.4159851074219,4.568999767303467 -375.1400146484375,4.568999767303467 -370.9179992675781,2.2920000553131104 C-370.9179992675781,2.2920000553131104 -362.4159851074219,-2.2920000553131104 -362.4159851074219,-2.2920000553131104 C-358.1929931640625,-4.568999767303467 -352.9179992675781,-4.568999767303467 -348.6960144042969,-2.2920000553131104 C-348.6960144042969,-2.2920000553131104 -340.1929931640625,2.2920000553131104 -340.1929931640625,2.2920000553131104 C-335.97100830078125,4.568999767303467 -330.6960144042969,4.568999767303467 -326.4739990234375,2.2920000553131104 C-326.4739990234375,2.2920000553131104 -317.97100830078125,-2.2920000553131104 -317.97100830078125,-2.2920000553131104 C-313.7489929199219,-4.568999767303467 -308.4739990234375,-4.568999767303467 -304.2510070800781,-2.2920000553131104 C-304.2510070800781,-2.2920000553131104 -295.7489929199219,2.2920000553131104 -295.7489929199219,2.2920000553131104 C-291.5260009765625,4.568999767303467 -286.2510070800781,4.568999767303467 -282.02899169921875,2.2920000553131104 C-282.02899169921875,2.2920000553131104 -273.5270080566406,-2.2920000553131104 -273.5270080566406,-2.2920000553131104 C-269.3039855957031,-4.568999767303467 -264.02899169921875,-4.568999767303467 -259.8070068359375,-2.2920000553131104 C-259.8070068359375,-2.2920000553131104 -251.3040008544922,2.2920000553131104 -251.3040008544922,2.2920000553131104 C-247.08200073242188,4.568999767303467 -241.8070068359375,4.568999767303467 -237.5850067138672,2.2920000553131104 C-237.5850067138672,2.2920000553131104 -229.08200073242188,-2.2920000553131104 -229.08200073242188,-2.2920000553131104 C-224.86000061035156,-4.568999767303467 -219.5850067138672,-4.568999767303467 -215.36199951171875,-2.2920000553131104 C-215.36199951171875,-2.2920000553131104 -206.86000061035156,2.2920000553131104 -206.86000061035156,2.2920000553131104 C-202.63699340820312,4.568999767303467 -197.36199951171875,4.568999767303467 -193.13999938964844,2.2920000553131104 C-193.13999938964844,2.2920000553131104 -184.63800048828125,-2.2920000553131104 -184.63800048828125,-2.2920000553131104 C-180.4149932861328,-4.568999767303467 -175.13999938964844,-4.568999767303467 -170.91799926757812,-2.2920000553131104 C-170.91799926757812,-2.2920000553131104 -162.4149932861328,2.2920000553131104 -162.4149932861328,2.2920000553131104 C-158.1929931640625,4.568999767303467 -152.91799926757812,4.568999767303467 -148.6959991455078,2.2920000553131104 C-148.6959991455078,2.2920000553131104 -140.1929931640625,-2.2920000553131104 -140.1929931640625,-2.2920000553131104 C-135.9709930419922,-4.568999767303467 -130.6959991455078,-4.568999767303467 -126.4729995727539,-2.2920000553131104 C-126.4729995727539,-2.2920000553131104 -117.97100067138672,2.2920000553131104 -117.97100067138672,2.2920000553131104 C-113.7490005493164,4.568999767303467 -108.4739990234375,4.568999767303467 -104.2509994506836,2.2920000553131104 C-104.2509994506836,2.2920000553131104 -95.7490005493164,-2.2920000553131104 -95.7490005493164,-2.2920000553131104 C-91.5260009765625,-4.568999767303467 -86.2509994506836,-4.568999767303467 -82.02899932861328,-2.2920000553131104 C-82.02899932861328,-2.2920000553131104 -73.5270004272461,2.2920000553131104 -73.5270004272461,2.2920000553131104 C-69.30400085449219,4.568999767303467 -64.02899932861328,4.568999767303467 -59.80699920654297,2.2920000553131104 C-59.80699920654297,2.2920000553131104 -51.30400085449219,-2.2920000553131104 -51.30400085449219,-2.2920000553131104 C-47.082000732421875,-4.568999767303467 -41.80699920654297,-4.568999767303467 -37.584999084472656,-2.2920000553131104 C-37.584999084472656,-2.2920000553131104 -29.082000732421875,2.2920000553131104 -29.082000732421875,2.2920000553131104 C-24.860000610351562,4.568999767303467 -19.584999084472656,4.568999767303467 -15.362000465393066,2.2920000553131104 C-15.362000465393066,2.2920000553131104 -6.860000133514404,-2.2920000553131104 -6.860000133514404,-2.2920000553131104 C-2.63700008392334,-4.568999767303467 2.638000011444092,-4.568999767303467 6.860000133514404,-2.2920000553131104 C6.860000133514404,-2.2920000553131104 15.362000465393066,2.2920000553131104 15.362000465393066,2.2920000553131104 C19.584999084472656,4.568999767303467 24.860000610351562,4.568999767303467 29.082000732421875,2.2920000553131104 C29.082000732421875,2.2920000553131104 37.584999084472656,-2.2920000553131104 37.584999084472656,-2.2920000553131104 C41.80699920654297,-4.568999767303467 47.082000732421875,-4.568999767303467 51.30400085449219,-2.2920000553131104 C51.30400085449219,-2.2920000553131104 59.80699920654297,2.2920000553131104 59.80699920654297,2.2920000553131104 C64.02899932861328,4.568999767303467 69.30400085449219,4.568999767303467 73.5270004272461,2.2920000553131104 C73.5270004272461,2.2920000553131104 82.02899932861328,-2.2920000553131104 82.02899932861328,-2.2920000553131104 C86.2509994506836,-4.568999767303467 91.5260009765625,-4.568999767303467 95.7490005493164,-2.2920000553131104 C95.7490005493164,-2.2920000553131104 104.2509994506836,2.2920000553131104 104.2509994506836,2.2920000553131104 C108.4739990234375,4.568999767303467 113.7490005493164,4.568999767303467 117.97100067138672,2.2920000553131104 C117.97100067138672,2.2920000553131104 126.4729995727539,-2.2920000553131104 126.4729995727539,-2.2920000553131104 C130.6959991455078,-4.568999767303467 135.9709930419922,-4.568999767303467 140.1929931640625,-2.2920000553131104 C140.1929931640625,-2.2920000553131104 148.6959991455078,2.2920000553131104 148.6959991455078,2.2920000553131104 C152.91799926757812,4.568999767303467 158.1929931640625,4.568999767303467 162.41600036621094,2.2920000553131104 C162.41600036621094,2.2920000553131104 170.91799926757812,-2.2920000553131104 170.91799926757812,-2.2920000553131104 C175.13999938964844,-4.568999767303467 180.4149932861328,-4.568999767303467 184.63800048828125,-2.2920000553131104 C184.63800048828125,-2.2920000553131104 193.13999938964844,2.2920000553131104 193.13999938964844,2.2920000553131104 C197.36300659179688,4.568999767303467 202.63699340820312,4.568999767303467 206.86000061035156,2.2920000553131104 C206.86000061035156,2.2920000553131104 215.36199951171875,-2.2920000553131104 215.36199951171875,-2.2920000553131104 C219.5850067138672,-4.568999767303467 224.86000061035156,-4.568999767303467 229.08200073242188,-2.2920000553131104 C229.08200073242188,-2.2920000553131104 237.58399963378906,2.2920000553131104 237.58399963378906,2.2920000553131104 C241.8070068359375,4.568999767303467 247.08200073242188,4.568999767303467 251.3040008544922,2.2920000553131104 C251.3040008544922,2.2920000553131104 259.8070068359375,-2.2920000553131104 259.8070068359375,-2.2920000553131104 C264.02899169921875,-4.568999767303467 269.3039855957031,-4.568999767303467 273.5270080566406,-2.2920000553131104 C273.5270080566406,-2.2920000553131104 282.02899169921875,2.2920000553131104 282.02899169921875,2.2920000553131104 C286.2510070800781,4.568999767303467 291.5260009765625,4.568999767303467 295.7489929199219,2.2920000553131104 C295.7489929199219,2.2920000553131104 304.2510070800781,-2.2920000553131104 304.2510070800781,-2.2920000553131104 C308.4739990234375,-4.568999767303467 313.7489929199219,-4.568999767303467 317.97100830078125,-2.2920000553131104 C317.97100830078125,-2.2920000553131104 326.4729919433594,2.2920000553131104 326.4729919433594,2.2920000553131104 C330.6960144042969,4.568999767303467 335.97100830078125,4.568999767303467 340.1929931640625,2.2920000553131104 C340.1929931640625,2.2920000553131104 348.6960144042969,-2.2920000553131104 348.6960144042969,-2.2920000553131104 C352.9179992675781,-4.568999767303467 358.1929931640625,-4.568999767303467 362.4159851074219,-2.2920000553131104 C362.4159851074219,-2.2920000553131104 370.9179992675781,2.2920000553131104 370.9179992675781,2.2920000553131104 C375.1400146484375,4.568999767303467 380.4150085449219,4.568999767303467 384.63800048828125,2.2920000553131104 C384.63800048828125,2.2920000553131104 393.1400146484375,-2.2920000553131104 393.1400146484375,-2.2920000553131104 C395.2510070800781,-3.430999994277954 397.6260070800781,-4 400,-4"></path></g></g></g></svg>