<svg width="497" height="497" viewBox="0 0 497 497" fill="none" xmlns="http://www.w3.org/2000/svg">
<path d="M259.41 247.998L493.754 13.6538C496.877 10.5298 496.877 5.46576 493.754 2.34176C490.63 -0.781238 485.566 -0.781238 482.442 2.34176L248.098 236.686L13.7542 2.34176C10.5762 -0.727238 5.51221 -0.639238 2.44221 2.53876C-0.55179 5.63876 -0.55179 10.5538 2.44221 13.6538L236.786 247.998L2.44221 482.342C-0.73579 485.412 -0.82379 490.476 2.24621 493.654C5.31621 496.832 10.3802 496.92 13.5582 493.85C13.6252 493.786 13.6902 493.72 13.7542 493.654L248.098 259.31L482.442 493.654C485.62 496.724 490.684 496.636 493.754 493.458C496.749 490.358 496.749 485.442 493.754 482.342L259.41 247.998Z" fill="#FF560A"/>
</svg>
