<svg width="512" height="512" viewBox="0 0 512 512" fill="none" xmlns="http://www.w3.org/2000/svg">
<g clip-path="url(#clip0)">
<path d="M440.437 301.781L266.656 475.584V10.667C266.656 4.776 261.88 0 255.989 0C250.098 0 245.322 4.776 245.322 10.667V475.584L71.5409 301.781C67.3039 297.688 60.5509 297.806 56.4579 302.043C52.4659 306.177 52.4659 312.73 56.4579 316.863L248.458 508.863C252.618 513.034 259.372 513.042 263.543 508.882C263.549 508.876 263.556 508.869 263.562 508.863L455.562 316.863C459.655 312.626 459.537 305.873 455.3 301.78C451.166 297.787 444.613 297.787 440.479 301.78L440.437 301.781Z" fill="#FFC107"/>
<path d="M255.989 512C253.158 512.005 250.441 510.885 248.437 508.885L56.4368 316.885C52.3438 312.648 52.4618 305.895 56.6988 301.802C60.8328 297.81 67.3858 297.81 71.5188 301.802L255.988 486.25L440.436 301.802C444.673 297.709 451.426 297.827 455.519 302.064C459.512 306.198 459.512 312.751 455.519 316.885L263.519 508.885C261.521 510.879 258.813 511.999 255.989 512Z" fill="#EF173B"/>
<path d="M255.989 512C250.098 512 245.322 507.224 245.322 501.333V10.667C245.323 4.776 250.098 0 255.989 0C261.88 0 266.656 4.776 266.656 10.667V501.334C266.656 507.224 261.88 512 255.989 512Z" fill="#EF173B"/>
</g>
<defs>
<clipPath id="clip0">
<rect width="512" height="512" fill="white"/>
</clipPath>
</defs>
</svg>
