<svg width="406" height="512" viewBox="0 0 406 512" fill="none" xmlns="http://www.w3.org/2000/svg">
<path d="M394.88 213.333C392.049 213.338 389.332 212.218 387.328 210.218L202.88 25.749L18.432 210.219C14.195 214.312 7.44198 214.194 3.34898 209.957C-0.64302 205.823 -0.64302 199.27 3.34898 195.137L195.349 3.13704C199.514 -1.02696 206.266 -1.02696 210.432 3.13704L402.432 195.137C406.591 199.309 406.581 206.063 402.408 210.222C400.409 212.214 397.702 213.333 394.88 213.333Z" fill="#FF560A"/>
<path d="M202.88 512C196.989 512 192.213 507.224 192.213 501.333V10.667C192.213 4.776 196.989 0 202.88 0C208.771 0 213.547 4.776 213.547 10.667V501.334C213.546 507.224 208.771 512 202.88 512Z" fill="#FF560A"/>
</svg>
