<svg width="513" height="364" viewBox="0 0 513 364" fill="none" xmlns="http://www.w3.org/2000/svg">
<path d="M501.339 171.328H36.421L188.869 18.8798C193.029 14.7198 193.029 7.95676 188.869 3.79676C184.709 -0.363242 177.946 -0.363242 173.786 3.79676L3.141 174.443C2.16 175.424 1.37 176.619 0.816 177.92C-0.272 180.523 -0.272 183.467 0.816 186.069C1.349 187.392 2.139 188.565 3.141 189.546L173.786 360.191C175.877 362.282 178.607 363.327 181.338 363.327C184.069 363.327 186.799 362.282 188.89 360.212C193.05 356.052 193.05 349.289 188.89 345.129L36.421 192.661H501.338C507.226 192.661 512.005 187.882 512.005 181.994C512.005 176.106 507.227 171.328 501.339 171.328Z" fill="#FF560A"/>
</svg>
